HIERARCHY
ROOT Hips
{
 OFFSET 0.000000 0.000000 0.000000
 CHANNELS 6 Xposition Yposition Zposition Yrotation Xrotation Zrotation
 JOINT Chest
 {
  OFFSET 0.000000 9.585900 0.002600
  CHANNELS 3 Yrotation Xrotation Zrotation
  JOINT Chest2
  {
   OFFSET 0.000000 9.601200 -0.005300
   CHANNELS 3 Yrotation Xrotation Zrotation
   JOINT Chest3
   {
    OFFSET 0.000000 9.561800 0.000000
    CHANNELS 3 Yrotation Xrotation Zrotation
    JOINT Chest4
    {
     OFFSET 0.000000 9.552100 0.000000
     CHANNELS 3 Yrotation Xrotation Zrotation
     JOINT Neck
     {
      OFFSET 0.000000 14.453000 0.000000
      CHANNELS 3 Yrotation Xrotation Zrotation
      JOINT Head
      {
       OFFSET 0.000000 8.936500 -0.011300
       CHANNELS 3 Yrotation Xrotation Zrotation
       End Site
       {
        OFFSET 0.000000 17.073600 -0.006000
       }
      }
     }
     JOINT RightCollar
     {
      OFFSET -2.921100 9.558500 0.000000
      CHANNELS 3 Yrotation Xrotation Zrotation
      JOINT RightShoulder
      {
       OFFSET -13.519700 0.000000 0.000000
       CHANNELS 3 Yrotation Xrotation Zrotation
       JOINT RightElbow
       {
        OFFSET 0.000000 -29.696600 0.000000
        CHANNELS 3 Yrotation Xrotation Zrotation
        JOINT RightWrist
        {
         OFFSET 0.000000 -24.004700 0.000000
         CHANNELS 3 Yrotation Xrotation Zrotation
         End Site
         {
          OFFSET 0.000000 -17.728500 0.000000
         }
        }
       }
      }
     }
     JOINT LeftCollar
     {
      OFFSET 2.921100 9.558500 0.000000
      CHANNELS 3 Yrotation Xrotation Zrotation
      JOINT LeftShoulder
      {
       OFFSET 13.519700 0.000000 0.000000
       CHANNELS 3 Yrotation Xrotation Zrotation
       JOINT LeftElbow
       {
        OFFSET 0.000000 -29.696600 0.000000
        CHANNELS 3 Yrotation Xrotation Zrotation
        JOINT LeftWrist
        {
         OFFSET 0.000000 -24.004700 0.000000
         CHANNELS 3 Yrotation Xrotation Zrotation
         End Site
         {
          OFFSET 0.000000 -17.728500 0.000000
         }
        }
       }
      }
     }
    }
   }
  }
 }
 JOINT RightHip
 {
  OFFSET -7.771700 -0.012900 -0.001300
  CHANNELS 3 Yrotation Xrotation Zrotation
  JOINT RightKnee
  {
   OFFSET 0.000000 -40.869800 0.001200
   CHANNELS 3 Yrotation Xrotation Zrotation
   JOINT RightAnkle
   {
    OFFSET 0.000000 -39.717900 0.002100
    CHANNELS 3 Yrotation Xrotation Zrotation
    JOINT RightToe
    {
     OFFSET 0.000000 -4.965400 11.033500
     CHANNELS 3 Yrotation Xrotation Zrotation
     End Site
     {
      OFFSET 0.000000 -1.423100 5.872300
     }
    }
   }
  }
 }
 JOINT LeftHip
 {
  OFFSET 7.771700 -0.012900 -0.001300
  CHANNELS 3 Yrotation Xrotation Zrotation
  JOINT LeftKnee
  {
   OFFSET 0.000000 -40.869800 0.001200
   CHANNELS 3 Yrotation Xrotation Zrotation
   JOINT LeftAnkle
   {
    OFFSET 0.000000 -39.717900 0.002100
    CHANNELS 3 Yrotation Xrotation Zrotation
    JOINT LeftToe
    {
     OFFSET 0.000000 -4.965400 11.033500
     CHANNELS 3 Yrotation Xrotation Zrotation
     End Site
     {
      OFFSET 0.000000 -1.423100 5.872300
     }
    }
   }
  }
 }
}
MOTION
Frames: 16
Frame Time: 0.008333
-122.130738 49.226246 19.423151 176.601017 -31.299316 -4.409209 0.302868 18.877210 2.216487 0.029731 2.236725 0.224746 0.066129 3.679854 0.347337 0.492866 16.429672 1.597372 4.681767 18.118611 -2.146106 9.313743 -1.860402 -5.519756 -1.531300 -2.859127 -3.363120 3.789861 -13.530577 -12.297294 -45.992675 -53.502270 94.330127 4.740508 4.834816 -11.963412 -0.138402 -2.519486 3.079383 -7.095332 -9.908864 14.736176 86.420617 -69.620288 -122.223461 0.477584 11.683174 3.751167 -8.030061 -52.459232 -4.432414 -149.271162 82.614735 -135.912729 -30.178891 -4.215474 -4.468649 -0.136674 -12.800301 -0.125860 -14.998110 -55.033051 20.337315 -75.105806 65.679428 -80.018547 30.601175 6.448582 15.428608 0.102030 -0.601493 0.081096
-122.136547 49.228368 19.430568 176.598816 -31.308968 -4.398353 0.294216 18.894105 2.218537 0.018661 2.247081 0.241287 0.063074 3.686326 0.350824 0.474276 16.449653 1.623004 4.685016 18.129368 -2.110224 9.300050 -1.833299 -5.424242 -1.494773 -2.878437 -3.394565 3.811592 -13.520200 -12.314635 -45.858769 -53.175648 94.342983 4.650332 4.749902 -11.804218 -0.151157 -2.557482 3.058872 -7.218464 -9.902180 14.746896 86.412084 -69.645457 -122.274356 0.489473 11.699787 3.684698 -8.002245 -52.456756 -4.457075 -149.266629 82.617594 -135.907048 -30.182357 -4.212041 -4.461484 -0.131022 -12.793976 -0.134337 -14.907130 -55.039324 20.294643 -75.077695 65.662477 -79.997723 30.619726 6.450509 15.478848 0.088946 -0.596057 0.075562
-122.147695 49.228847 19.440287 176.598443 -31.301976 -4.348496 0.258975 18.899991 2.189853 0.016153 2.254071 0.240851 0.070137 3.679920 0.338403 0.454925 16.485015 1.666540 4.684023 18.139542 -2.076737 9.280845 -1.805337 -5.331748 -1.462063 -2.899738 -3.425447 3.836445 -13.518691 -12.340973 -45.739551 -52.863687 94.375806 4.565966 4.685236 -11.676064 -0.170449 -2.590216 3.043685 -7.323804 -9.890295 14.752192 86.420523 -69.669219 -122.337986 0.519658 11.705455 3.638460 -7.930059 -52.476394 -4.543192 -149.300644 82.623592 -135.939093 -30.192647 -4.226412 -4.446199 -0.120131 -12.771594 -0.151742 -14.807493 -55.064201 20.208551 -74.936252 65.675761 -79.911016 30.700802 6.488848 15.582270 0.004057 -0.629756 0.057623
-122.148102 49.230938 19.450054 176.591152 -31.304691 -4.352656 0.248207 18.918088 2.219535 0.015892 2.258956 0.238125 0.076833 3.673281 0.329788 0.445442 16.512059 1.692910 4.678973 18.157481 -2.028926 9.254927 -1.777156 -5.240923 -1.442007 -2.919235 -3.446328 3.848190 -13.528876 -12.366312 -45.618020 -52.570146 94.431219 4.484533 4.638282 -11.596824 -0.196585 -2.618419 3.045670 -7.415872 -9.861409 14.755357 86.429725 -69.686338 -122.400526 0.574799 11.694487 3.627495 -7.914151 -52.475120 -4.539088 -149.295478 82.633615 -135.922599 -30.200796 -4.225994 -4.446457 -0.113669 -12.762592 -0.158524 -14.743174 -55.073144 20.208669 -74.913250 65.644477 -79.882335 30.701060 6.508212 15.609292 0.013693 -0.626303 0.059969
-122.148040 49.233037 19.460099 176.587381 -31.306328 -4.357018 0.236163 18.935489 2.243755 0.012623 2.263339 0.235674 0.077732 3.680827 0.337559 0.440703 16.524869 1.701106 4.670874 18.175011 -1.983427 9.224199 -1.749769 -5.153415 -1.425610 -2.952452 -3.480259 3.887510 -13.502426 -12.362460 -45.541331 -52.343085 94.506370 4.399069 4.597822 -11.574355 -0.255839 -2.618515 3.086747 -7.448096 -9.849671 14.723757 86.413140 -69.686703 -122.438897 0.665718 11.655558 3.677602 -7.898275 -52.474667 -4.537744 -149.288971 82.646007 -135.905169 -30.209345 -4.221301 -4.446980 -0.104207 -12.756043 -0.165733 -14.688413 -55.081866 20.209842 -74.886767 65.615127 -79.853110 30.703114 6.525853 15.637239 0.019492 -0.621692 0.059840
-122.149574 49.235168 19.469549 176.576895 -31.310671 -4.345465 0.222196 18.955615 2.247874 0.011240 2.267211 0.237492 0.062869 3.708355 0.358445 0.445677 16.517627 1.692590 4.662424 18.191595 -1.942405 9.194358 -1.723677 -5.074094 -1.400719 -2.965259 -3.487777 3.975983 -13.467080 -12.378066 -45.519792 -52.182624 94.583470 4.293438 4.545085 -11.611129 -0.275635 -2.631801 3.086179 -7.505118 -9.806322 14.728068 86.360666 -69.662799 -122.437546 0.789890 11.581452 3.811729 -7.854946 -52.473331 -4.560119 -149.277072 82.657203 -135.880515 -30.214877 -4.220518 -4.448036 -0.105180 -12.745024 -0.169544 -14.647723 -55.083998 20.196374 -74.836577 65.609668 -79.817347 30.730130 6.536472 15.675396 -0.002940 -0.620483 0.047154
-122.150692 49.237214 19.478643 176.557734 -31.316024 -4.330522 0.192094 18.991223 2.263664 0.042670 2.247293 0.211427 0.045085 3.731371 0.377489 0.449673 16.515138 1.687087 4.650973 18.215168 -1.895255 9.166244 -1.700049 -5.004410 -1.384535 -2.969799 -3.488210 4.030078 -13.459547 -12.404051 -45.455680 -52.024180 94.656274 4.156949 4.458628 -11.712845 -0.297145 -2.634791 3.094129 -7.548410 -9.749115 14.730981 86.286416 -69.616166 -122.404988 0.928731 11.479131 4.023928 -7.795861 -52.476117 -4.585988 -149.287481 82.662353 -135.873198 -30.224596 -4.215549 -4.446985 -0.103825 -12.739129 -0.174115 -14.602262 -55.084830 20.185093 -74.795996 65.604321 -79.787499 30.746962 6.544518 15.706492 -0.002165 -0.609637 0.026267
-122.151078 49.238989 19.487417 176.531510 -31.320864 -4.315752 0.196721 19.005655 2.271401 0.047818 2.247215 0.206794 0.044080 3.734119 0.378944 0.452618 16.512331 1.682761 4.630941 18.252707 -1.829997 9.137679 -1.680719 -4.942819 -1.385965 -2.957967 -3.471108 4.100016 -13.450303 -12.431938 -45.399282 -51.881249 94.717557 4.001688 4.338031 -11.882587 -0.300769 -2.637634 3.093274 -7.602708 -9.658034 14.754049 86.219711 -69.555317 -122.375165 1.053041 11.368136 4.272534 -7.760097 -52.480958 -4.594233 -149.349268 82.670207 -135.929529 -30.223342 -4.208915 -4.442635 -0.089191 -12.736950 -0.189655 -14.545691 -55.086936 20.182316 -74.770179 65.587347 -79.763930 30.738708 6.556298 15.727419 0.008978 -0.604556 0.020224
-122.151132 49.240576 19.495370 176.517078 -31.326111 -4.308546 0.203594 19.013417 2.274845 0.029842 2.261630 0.223109 0.054065 3.729064 0.368681 0.435076 16.538825 1.701759 4.614475 18.258857 -1.802873 9.109142 -1.665094 -4.888943 -1.377685 -2.966966 -3.474473 4.194924 -13.450889 -12.472806 -45.364218 -51.757726 94.773605 3.854516 4.202290 -12.116928 -0.308753 -2.645301 3.087796 -7.595756 -9.582563 14.747182 86.184987 -69.495277 -122.374193 1.139202 11.266599 4.500575 -7.737693 -52.486267 -4.601558 -149.433892 82.676015 -136.009670 -30.221611 -4.195663 -4.439320 -0.089561 -12.742881 -0.200407 -14.512242 -55.087141 20.186263 -74.751101 65.574050 -79.747869 30.733222 6.561954 15.732775 0.011019 -0.598936 0.028033
-122.149878 49.242965 19.500950 176.495718 -31.343776 -4.304008 0.203592 19.041257 2.296479 0.027757 2.266110 0.224006 0.021410 3.754343 0.391857 0.402062 16.563296 1.708919 4.623096 18.237544 -1.825096 9.113043 -1.667573 -4.904041 -1.323878 -3.011552 -3.529148 4.292598 -13.443350 -12.503541 -45.351134 -51.667763 94.825773 3.741935 4.067176 -12.395193 -0.267641 -2.677103 3.036769 -7.563664 -9.500299 14.735933 86.189659 -69.451482 -122.407536 1.185992 11.187611 4.662628 -7.722868 -52.478373 -4.597436 -149.525257 82.680898 -136.100574 -30.214774 -4.182674 -4.439823 -0.094829 -12.750671 -0.207145 -14.480159 -55.068303 20.200437 -74.745001 65.553210 -79.740065 30.719875 6.553760 15.719567 0.023878 -0.581971 0.043256
-122.152140 49.244099 19.506617 176.478417 -31.352199 -4.278915 0.188234 19.058627 2.289504 0.025365 2.269939 0.225055 0.031168 3.750507 0.382127 0.372903 16.581685 1.722187 4.611539 18.242633 -1.805596 9.070048 -1.651880 -4.831958 -1.300580 -3.020867 -3.549796 4.383907 -13.434729 -12.527432 -45.351590 -51.622343 94.867252 3.674768 3.948719 -12.673356 -0.251455 -2.668086 3.025931 -7.514127 -9.416739 14.719450 86.231487 -69.429364 -122.476190 1.205508 11.142337 4.739462 -7.692497 -52.485419 -4.625983 -149.631096 82.681927 -136.210138 -30.207003 -4.171362 -4.445854 -0.104888 -12.758526 -0.207190 -14.442885 -55.058828 20.182155 -74.692493 65.552100 -79.700061 30.717389 6.555986 15.730142 0.025848 -0.571503 0.039479
-122.153303 49.244644 19.512311 176.466449 -31.354886 -4.260169 0.166959 19.071047 2.284414 0.000126 2.284615 0.242490 0.064251 3.735280 0.355730 0.347863 16.599682 1.732158 4.597493 18.243767 -1.788973 9.022431 -1.646556 -4.767903 -1.280540 -3.029066 -3.570872 4.463525 -13.428828 -12.545603 -45.383052 -51.618092 94.886710 3.646250 3.879244 -12.873351 -0.261048 -2.633094 3.046178 -7.415214 -9.356309 14.675277 86.292782 -69.421158 -122.566951 1.207324 11.130232 4.738357 -7.675986 -52.495875 -4.645070 -149.728067 82.684955 -136.311061 -30.203150 -4.162269 -4.453797 -0.111942 -12.764838 -0.206540 -14.421672 -55.056302 20.167653 -74.655439 65.552947 -79.664354 30.712360 6.562271 15.728512 0.038122 -0.559903 0.031660
-122.151992 49.245479 19.517065 176.460953 -31.359625 -4.254827 0.147280 19.084110 2.289555 0.003187 2.289344 0.244437 0.054556 3.739221 0.354974 0.353304 16.596906 1.722131 4.572631 18.253014 -1.760056 8.986662 -1.654252 -4.737371 -1.279626 -3.024490 -3.575282 4.523296 -13.426751 -12.558926 -45.399517 -51.627110 94.900195 3.643269 3.845877 -12.976392 -0.259509 -2.616588 3.054169 -7.335703 -9.263054 14.654335 86.343535 -69.415983 -122.652213 1.200923 11.137567 4.681911 -7.671156 -52.497313 -4.648475 -149.786919 82.690033 -136.370173 -30.204562 -4.156619 -4.463094 -0.113714 -12.767928 -0.203473 -14.414943 -55.051720 20.164328 -74.636754 65.553673 -79.639710 30.707619 6.564643 15.722348 0.040907 -0.550704 0.030813
-122.151185 49.246083 19.521346 176.448268 -31.362256 -4.237094 0.138364 19.096500 2.290384 0.004525 2.289051 0.239914 0.030283 3.764412 0.378052 0.365714 16.576090 1.691570 4.548358 18.257621 -1.737422 8.982615 -1.663575 -4.746639 -1.283547 -3.020136 -3.578434 4.563708 -13.431214 -12.568937 -45.366974 -51.651138 94.909269 3.646121 3.845785 -13.078151 -0.255365 -2.602737 3.061601 -7.244614 -9.171985 14.635995 86.350941 -69.404977 -122.706179 1.195880 11.150647 4.592140 -7.672965 -52.512764 -4.650044 -149.870812 82.684437 -136.470945 -30.194815 -4.138237 -4.465560 -0.117455 -12.784607 -0.206606 -14.408849 -55.046194 20.161585 -74.608106 65.559143 -79.613787 30.690106 6.564794 15.709422 0.051305 -0.539195 0.032920
-122.147950 49.247243 19.524684 176.412464 -31.369594 -4.215668 0.149706 19.112037 2.298909 0.017231 2.282511 0.226692 0.026215 3.769520 0.381825 0.334265 16.617730 1.714867 4.542466 18.223755 -1.755104 8.928011 -1.686847 -4.705781 -1.263701 -3.054153 -3.612659 4.589534 -13.442911 -12.576216 -45.241168 -51.638636 94.852312 3.676793 3.860963 -13.087883 -0.218580 -2.628055 3.042698 -7.142144 -9.083852 14.616869 86.298905 -69.380739 -122.717160 1.195404 11.164114 4.481608 -7.681944 -52.524766 -4.624276 -149.970936 82.685910 -136.592293 -30.200874 -4.121074 -4.473710 -0.099129 -12.800862 -0.213188 -14.388568 -55.031924 20.163023 -74.601988 65.572765 -79.596438 30.657223 6.544998 15.675728 0.076214 -0.515447 0.037593
-122.142532 49.248480 19.527991 176.372531 -31.374497 -4.199751 0.159941 19.134668 2.322242 0.027373 2.275103 0.214441 0.032327 3.765553 0.374442 0.332897 16.621546 1.713223 4.521135 18.220914 -1.739482 8.904775 -1.705127 -4.694851 -1.276844 -3.055121 -3.615563 4.611917 -13.434340 -12.577021 -45.179205 -51.621877 94.815957 3.709114 3.938402 -13.004087 -0.211100 -2.623049 3.053739 -7.033862 -8.991802 14.601853 86.203427 -69.344159 -122.693345 1.198490 11.175513 4.358018 -7.658875 -52.524421 -4.617147 -150.161127 82.710090 -136.767062 -30.225205 -4.130277 -4.497197 -0.098521 -12.796256 -0.209615 -14.409648 -55.008787 20.201871 -74.565236 65.585032 -79.573927 30.650823 6.518639 15.658986 0.074429 -0.491694 0.036037
